<?xml version="1.0" encoding="UTF-8" standalone="no"?>
<svg
   version="1.1"
   width="64"
   height="64"
   viewBox="0 0 64 64"
   xml:space="preserve"
   id="svg124"
   sodipodi:docname="lliurex-cdc-control.svg"
   inkscape:version="1.1 (1:1.1+202105261517+ce6663b3b7)"
   xmlns:inkscape="http://www.inkscape.org/namespaces/inkscape"
   xmlns:sodipodi="http://sodipodi.sourceforge.net/DTD/sodipodi-0.dtd"
   xmlns="http://www.w3.org/2000/svg"
   xmlns:svg="http://www.w3.org/2000/svg"><sodipodi:namedview
   id="namedview126"
   pagecolor="#ffffff"
   bordercolor="#666666"
   borderopacity="1.0"
   inkscape:pageshadow="2"
   inkscape:pageopacity="0.0"
   inkscape:pagecheckerboard="0"
   showgrid="false"
   inkscape:zoom="4"
   inkscape:cx="40.5"
   inkscape:cy="28.75"
   inkscape:window-width="1920"
   inkscape:window-height="879"
   inkscape:window-x="0"
   inkscape:window-y="0"
   inkscape:window-maximized="1"
   inkscape:current-layer="g28352" />
<desc
   id="desc2">Created with Fabric.js 1.7.22</desc>
<defs
   id="defs4">
</defs>
<g
   transform="matrix(0.72,0,0,0.72,128,128)"
   id="g122">
	<g
   style="opacity:1;fill:none;fill-rule:nonzero;stroke:none;stroke-width:0;stroke-linecap:butt;stroke-linejoin:miter;stroke-miterlimit:10;stroke-dasharray:none"
   transform="matrix(3.89,0,0,3.89,-177.82778,-213.93892)"
   id="g120">
	
	
	
	
	
	
	
	
	
	
	
	
	
	
	
	
	
	
	
	
	
	
	
	
	
	
	
	
	
	
	
	
	
	
	
	
	
	
	
	
	
	
	
	
	
	
	
	
	
	
	
	
	
	
	
	
	
</g>
<g
   id="g28129"
   transform="matrix(0.29807019,0,0,0.29807019,-115.66181,-260.14322)"><g
     id="g28352"
     transform="matrix(0.83085916,0,0,0.83085916,-53.762332,457.06774)"><path
       d="M 85.463,62.208 52.257,43.037 7.921,65.713 7.147,63.696 48.325,39.922 C 49.287,39.367 49.88,38.34 49.88,37.229 V 2.765 L 50.411,2.929 51.633,1.604 49.188,0.241 49.186,0.247 C 48.738,-0.042 48.145,-0.103 47.618,0.201 L 5.014,24.799 c -0.893,0.516 -1.443,1.468 -1.443,2.499 v 35.578 3.443 c 0,1.002 0.53,1.93 1.394,2.438 l 35.216,20.719 c 1.208,0.697 2.697,0.697 3.904,-0.001 L 85.463,65.553 c 0.641,-0.371 0.963,-1.018 0.965,-1.666 0.003,-0.651 -0.319,-1.305 -0.965,-1.679 z"
       style="opacity:1;fill:#000000;fill-rule:nonzero;stroke:none;stroke-width:1;stroke-linecap:butt;stroke-linejoin:miter;stroke-miterlimit:10;stroke-dasharray:none"
       stroke-linecap="round"
       id="path6"
       transform="matrix(3.89,0,0,3.89,-177.82778,-213.93892)" /><polygon
       points="83.25,61.15 83.43,64.38 86.43,63.89 86.43,61.15 "
       style="opacity:1;fill:#000000;fill-rule:nonzero;stroke:none;stroke-width:1;stroke-linecap:butt;stroke-linejoin:miter;stroke-miterlimit:10;stroke-dasharray:none"
       id="polygon8"
       transform="matrix(3.89,0,0,3.89,-177.82778,-213.93892)" /><path
       d="M 52.336,40.394 6.026,67.131 V 28.669 c 0,-1.031 0.55,-1.984 1.443,-2.5 L 50.074,1.572 c 1.005,-0.58 2.262,0.145 2.262,1.306 z"
       style="opacity:1;fill:#000000;fill-rule:nonzero;stroke:none;stroke-width:1;stroke-linecap:butt;stroke-linejoin:miter;stroke-miterlimit:10;stroke-dasharray:none"
       stroke-linecap="round"
       id="path10"
       transform="matrix(3.89,0,0,3.89,-177.82778,-213.93892)" /><polygon
       points="8.78,28.43 8.78,62.53 49.7,38.75 49.7,4.64 "
       style="opacity:1;fill:#ffffff;fill-rule:nonzero;stroke:none;stroke-width:1;stroke-linecap:butt;stroke-linejoin:miter;stroke-miterlimit:10;stroke-dasharray:none"
       id="polygon12"
       transform="matrix(3.89,0,0,3.89,-177.82778,-213.93892)" /><polygon
       points="8.78,44.55 8.78,54.38 25.92,18.46 19.09,22.43 "
       style="opacity:1;fill:#ffffff;fill-rule:nonzero;stroke:none;stroke-width:1;stroke-linecap:butt;stroke-linejoin:miter;stroke-miterlimit:10;stroke-dasharray:none"
       id="polygon14"
       transform="matrix(3.89,0,0,3.89,-177.82778,-213.93892)" /><polygon
       points="12.44,60.4 21.31,55.25 43.84,8.04 34.27,13.61 "
       style="opacity:1;fill:#ffffff;fill-rule:nonzero;stroke:none;stroke-width:1;stroke-linecap:butt;stroke-linejoin:miter;stroke-miterlimit:10;stroke-dasharray:none"
       id="polygon16"
       transform="matrix(3.89,0,0,3.89,-177.82778,-213.93892)" /><path
       d="M 85.459,62.925 44.081,86.846 c -1.208,0.698 -2.696,0.699 -3.904,10e-4 L 6.026,67.131 52.252,40.407 85.458,59.579 c 1.288,0.743 1.289,2.602 0.001,3.346 z"
       style="opacity:1;fill:#000000;fill-rule:nonzero;stroke:none;stroke-width:1;stroke-linecap:butt;stroke-linejoin:miter;stroke-miterlimit:10;stroke-dasharray:none"
       stroke-linecap="round"
       id="path18"
       transform="matrix(3.89,0,0,3.89,-177.82778,-213.93892)" /><polygon
       points="60.9,51.92 63.29,50.53 60.98,49.2 58.59,50.58 "
       style="opacity:1;fill:#999999;fill-rule:nonzero;stroke:none;stroke-width:1;stroke-linecap:butt;stroke-linejoin:miter;stroke-miterlimit:10;stroke-dasharray:none"
       id="polygon20"
       transform="matrix(3.89,0,0,3.89,-177.82778,-213.93892)" /><polygon
       points="64.14,54.87 61.75,56.25 64.06,57.59 66.45,56.2 "
       style="opacity:1;fill:#999999;fill-rule:nonzero;stroke:none;stroke-width:1;stroke-linecap:butt;stroke-linejoin:miter;stroke-miterlimit:10;stroke-dasharray:none"
       id="polygon22"
       transform="matrix(3.89,0,0,3.89,-177.82778,-213.93892)" /><polygon
       points="54.15,60.64 51.76,62.02 54.07,63.35 56.46,61.97 "
       style="opacity:1;fill:#999999;fill-rule:nonzero;stroke:none;stroke-width:1;stroke-linecap:butt;stroke-linejoin:miter;stroke-miterlimit:10;stroke-dasharray:none"
       id="polygon24"
       transform="matrix(3.89,0,0,3.89,-177.82778,-213.93892)" /><polygon
       points="47.58,59.61 49.97,58.22 47.66,56.89 45.27,58.27 "
       style="opacity:1;fill:#999999;fill-rule:nonzero;stroke:none;stroke-width:1;stroke-linecap:butt;stroke-linejoin:miter;stroke-miterlimit:10;stroke-dasharray:none"
       id="polygon26"
       transform="matrix(3.89,0,0,3.89,-177.82778,-213.93892)" /><polygon
       points="34.26,67.3 36.65,65.92 34.34,64.58 31.95,65.96 "
       style="opacity:1;fill:#999999;fill-rule:nonzero;stroke:none;stroke-width:1;stroke-linecap:butt;stroke-linejoin:miter;stroke-miterlimit:10;stroke-dasharray:none"
       id="polygon28"
       transform="matrix(3.89,0,0,3.89,-177.82778,-213.93892)" /><polygon
       points="40.92,63.45 43.31,62.07 41,60.74 38.61,62.12 "
       style="opacity:1;fill:#999999;fill-rule:nonzero;stroke:none;stroke-width:1;stroke-linecap:butt;stroke-linejoin:miter;stroke-miterlimit:10;stroke-dasharray:none"
       id="polygon30"
       transform="matrix(3.89,0,0,3.89,-177.82778,-213.93892)" /><polygon
       points="37.59,65.37 39.98,63.99 37.67,62.66 35.28,64.04 "
       style="opacity:1;fill:#999999;fill-rule:nonzero;stroke:none;stroke-width:1;stroke-linecap:butt;stroke-linejoin:miter;stroke-miterlimit:10;stroke-dasharray:none"
       id="polygon32"
       transform="matrix(3.89,0,0,3.89,-177.82778,-213.93892)" /><polygon
       points="30.93,69.22 33.32,67.84 31.01,66.5 28.62,67.89 "
       style="opacity:1;fill:#999999;fill-rule:nonzero;stroke:none;stroke-width:1;stroke-linecap:butt;stroke-linejoin:miter;stroke-miterlimit:10;stroke-dasharray:none"
       id="polygon34"
       transform="matrix(3.89,0,0,3.89,-177.82778,-213.93892)" /><polygon
       points="27.59,71.14 29.99,69.76 27.68,68.43 25.29,69.81 "
       style="opacity:1;fill:#999999;fill-rule:nonzero;stroke:none;stroke-width:1;stroke-linecap:butt;stroke-linejoin:miter;stroke-miterlimit:10;stroke-dasharray:none"
       id="polygon36"
       transform="matrix(3.89,0,0,3.89,-177.82778,-213.93892)" /><polygon
       points="57.57,53.84 59.96,52.46 57.65,51.12 55.26,52.51 "
       style="opacity:1;fill:#999999;fill-rule:nonzero;stroke:none;stroke-width:1;stroke-linecap:butt;stroke-linejoin:miter;stroke-miterlimit:10;stroke-dasharray:none"
       id="polygon38"
       transform="matrix(3.89,0,0,3.89,-177.82778,-213.93892)" /><polygon
       points="54.24,55.76 56.63,54.38 54.32,53.05 51.93,54.43 "
       style="opacity:1;fill:#999999;fill-rule:nonzero;stroke:none;stroke-width:1;stroke-linecap:butt;stroke-linejoin:miter;stroke-miterlimit:10;stroke-dasharray:none"
       id="polygon40"
       transform="matrix(3.89,0,0,3.89,-177.82778,-213.93892)" /><polygon
       points="53.3,56.3 50.99,54.97 48.6,56.35 50.91,57.68 "
       style="opacity:1;fill:#999999;fill-rule:nonzero;stroke:none;stroke-width:1;stroke-linecap:butt;stroke-linejoin:miter;stroke-miterlimit:10;stroke-dasharray:none"
       id="polygon42"
       transform="matrix(3.89,0,0,3.89,-177.82778,-213.93892)" /><polygon
       points="44.25,61.53 46.64,60.15 44.33,58.81 41.94,60.2 "
       style="opacity:1;fill:#999999;fill-rule:nonzero;stroke:none;stroke-width:1;stroke-linecap:butt;stroke-linejoin:miter;stroke-miterlimit:10;stroke-dasharray:none"
       id="polygon44"
       transform="matrix(3.89,0,0,3.89,-177.82778,-213.93892)" /><polygon
       points="50.82,62.56 48.43,63.94 50.74,65.28 53.13,63.9 "
       style="opacity:1;fill:#999999;fill-rule:nonzero;stroke:none;stroke-width:1;stroke-linecap:butt;stroke-linejoin:miter;stroke-miterlimit:10;stroke-dasharray:none"
       id="polygon46"
       transform="matrix(3.89,0,0,3.89,-177.82778,-213.93892)" /><polygon
       points="60.81,55.71 63.21,54.33 60.9,53 58.5,54.38 "
       style="opacity:1;fill:#999999;fill-rule:nonzero;stroke:none;stroke-width:1;stroke-linecap:butt;stroke-linejoin:miter;stroke-miterlimit:10;stroke-dasharray:none"
       id="polygon48"
       transform="matrix(3.89,0,0,3.89,-177.82778,-213.93892)" /><polygon
       points="34.26,68.38 31.86,69.76 34.17,71.09 36.56,69.71 "
       style="opacity:1;fill:#999999;fill-rule:nonzero;stroke:none;stroke-width:1;stroke-linecap:butt;stroke-linejoin:miter;stroke-miterlimit:10;stroke-dasharray:none"
       id="polygon50"
       transform="matrix(3.89,0,0,3.89,-177.82778,-213.93892)" /><polygon
       points="24.26,73.06 26.66,71.68 24.35,70.35 21.95,71.73 "
       style="opacity:1;fill:#999999;fill-rule:nonzero;stroke:none;stroke-width:1;stroke-linecap:butt;stroke-linejoin:miter;stroke-miterlimit:10;stroke-dasharray:none"
       id="polygon52"
       transform="matrix(3.89,0,0,3.89,-177.82778,-213.93892)" /><polygon
       points="30.84,73.02 33.23,71.64 30.93,70.3 28.53,71.68 "
       style="opacity:1;fill:#999999;fill-rule:nonzero;stroke:none;stroke-width:1;stroke-linecap:butt;stroke-linejoin:miter;stroke-miterlimit:10;stroke-dasharray:none"
       id="polygon54"
       transform="matrix(3.89,0,0,3.89,-177.82778,-213.93892)" /><polygon
       points="64.23,51.08 61.83,52.46 64.14,53.79 66.54,52.41 "
       style="opacity:1;fill:#999999;fill-rule:nonzero;stroke:none;stroke-width:1;stroke-linecap:butt;stroke-linejoin:miter;stroke-miterlimit:10;stroke-dasharray:none"
       id="polygon56"
       transform="matrix(3.89,0,0,3.89,-177.82778,-213.93892)" /><polygon
       points="57.48,57.63 59.88,56.25 57.57,54.92 55.17,56.3 "
       style="opacity:1;fill:#999999;fill-rule:nonzero;stroke:none;stroke-width:1;stroke-linecap:butt;stroke-linejoin:miter;stroke-miterlimit:10;stroke-dasharray:none"
       id="polygon58"
       transform="matrix(3.89,0,0,3.89,-177.82778,-213.93892)" /><polygon
       points="47.49,64.48 45.1,65.87 47.41,67.2 49.8,65.82 "
       style="opacity:1;fill:#999999;fill-rule:nonzero;stroke:none;stroke-width:1;stroke-linecap:butt;stroke-linejoin:miter;stroke-miterlimit:10;stroke-dasharray:none"
       id="polygon60"
       transform="matrix(3.89,0,0,3.89,-177.82778,-213.93892)" /><polygon
       points="37.5,70.25 35.11,71.64 37.42,72.97 39.81,71.59 "
       style="opacity:1;fill:#999999;fill-rule:nonzero;stroke:none;stroke-width:1;stroke-linecap:butt;stroke-linejoin:miter;stroke-miterlimit:10;stroke-dasharray:none"
       id="polygon62"
       transform="matrix(3.89,0,0,3.89,-177.82778,-213.93892)" /><polygon
       points="44.16,66.41 41.77,67.79 44.08,69.12 46.47,67.74 "
       style="opacity:1;fill:#999999;fill-rule:nonzero;stroke:none;stroke-width:1;stroke-linecap:butt;stroke-linejoin:miter;stroke-miterlimit:10;stroke-dasharray:none"
       id="polygon64"
       transform="matrix(3.89,0,0,3.89,-177.82778,-213.93892)" /><polygon
       points="37.5,69.17 39.9,67.79 37.59,66.46 35.19,67.84 "
       style="opacity:1;fill:#999999;fill-rule:nonzero;stroke:none;stroke-width:1;stroke-linecap:butt;stroke-linejoin:miter;stroke-miterlimit:10;stroke-dasharray:none"
       id="polygon66"
       transform="matrix(3.89,0,0,3.89,-177.82778,-213.93892)" /><polygon
       points="40.83,68.33 38.44,69.71 40.75,71.05 43.14,69.66 "
       style="opacity:1;fill:#999999;fill-rule:nonzero;stroke:none;stroke-width:1;stroke-linecap:butt;stroke-linejoin:miter;stroke-miterlimit:10;stroke-dasharray:none"
       id="polygon68"
       transform="matrix(3.89,0,0,3.89,-177.82778,-213.93892)" /><polygon
       points="54.24,56.84 51.84,58.23 48.51,60.15 50.82,61.48 54.15,59.56 57.4,61.43 59.79,60.05 56.55,58.18 "
       style="opacity:1;fill:#999999;fill-rule:nonzero;stroke:none;stroke-width:1;stroke-linecap:butt;stroke-linejoin:miter;stroke-miterlimit:10;stroke-dasharray:none"
       id="polygon70"
       transform="matrix(3.89,0,0,3.89,-177.82778,-213.93892)" /><polygon
       points="40.83,67.25 43.23,65.87 40.92,64.53 38.52,65.92 "
       style="opacity:1;fill:#999999;fill-rule:nonzero;stroke:none;stroke-width:1;stroke-linecap:butt;stroke-linejoin:miter;stroke-miterlimit:10;stroke-dasharray:none"
       id="polygon72"
       transform="matrix(3.89,0,0,3.89,-177.82778,-213.93892)" /><polygon
       points="47.49,63.4 49.89,62.02 47.58,60.69 45.18,62.07 "
       style="opacity:1;fill:#999999;fill-rule:nonzero;stroke:none;stroke-width:1;stroke-linecap:butt;stroke-linejoin:miter;stroke-miterlimit:10;stroke-dasharray:none"
       id="polygon74"
       transform="matrix(3.89,0,0,3.89,-177.82778,-213.93892)" /><polygon
       points="44.16,65.33 46.55,63.94 44.25,62.61 41.85,63.99 "
       style="opacity:1;fill:#999999;fill-rule:nonzero;stroke:none;stroke-width:1;stroke-linecap:butt;stroke-linejoin:miter;stroke-miterlimit:10;stroke-dasharray:none"
       id="polygon76"
       transform="matrix(3.89,0,0,3.89,-177.82778,-213.93892)" /><polygon
       points="56.7,65.96 54.07,64.44 51.67,65.82 50.74,66.36 49.48,67.08 47.41,68.28 45.01,69.66 41.68,71.59 44.32,73.11 50.98,69.26 53.37,67.88 54.31,67.34 "
       style="opacity:1;fill:#999999;fill-rule:nonzero;stroke:none;stroke-width:1;stroke-linecap:butt;stroke-linejoin:miter;stroke-miterlimit:10;stroke-dasharray:none"
       id="polygon78"
       transform="matrix(3.89,0,0,3.89,-177.82778,-213.93892)" /><polygon
       points="27.59,72.22 25.2,73.61 27.51,74.94 29.9,73.56 "
       style="opacity:1;fill:#999999;fill-rule:nonzero;stroke:none;stroke-width:1;stroke-linecap:butt;stroke-linejoin:miter;stroke-miterlimit:10;stroke-dasharray:none"
       id="polygon80"
       transform="matrix(3.89,0,0,3.89,-177.82778,-213.93892)" /><polygon
       points="34.17,72.17 31.78,73.56 34.09,74.89 36.48,73.51 "
       style="opacity:1;fill:#999999;fill-rule:nonzero;stroke:none;stroke-width:1;stroke-linecap:butt;stroke-linejoin:miter;stroke-miterlimit:10;stroke-dasharray:none"
       id="polygon82"
       transform="matrix(3.89,0,0,3.89,-177.82778,-213.93892)" /><polygon
       points="30.84,74.1 28.45,75.48 30.76,76.81 33.15,75.43 "
       style="opacity:1;fill:#999999;fill-rule:nonzero;stroke:none;stroke-width:1;stroke-linecap:butt;stroke-linejoin:miter;stroke-miterlimit:10;stroke-dasharray:none"
       id="polygon84"
       transform="matrix(3.89,0,0,3.89,-177.82778,-213.93892)" /><polygon
       points="64.06,58.67 61.67,60.05 64.3,61.57 66.69,60.19 "
       style="opacity:1;fill:#999999;fill-rule:nonzero;stroke:none;stroke-width:1;stroke-linecap:butt;stroke-linejoin:miter;stroke-miterlimit:10;stroke-dasharray:none"
       id="polygon86"
       transform="matrix(3.89,0,0,3.89,-177.82778,-213.93892)" /><polygon
       points="67.39,56.74 65,58.13 67.63,59.65 70.02,58.27 "
       style="opacity:1;fill:#999999;fill-rule:nonzero;stroke:none;stroke-width:1;stroke-linecap:butt;stroke-linejoin:miter;stroke-miterlimit:10;stroke-dasharray:none"
       id="polygon88"
       transform="matrix(3.89,0,0,3.89,-177.82778,-213.93892)" /><polygon
       points="68.33,56.2 70.96,57.73 73.35,56.34 70.72,54.82 "
       style="opacity:1;fill:#999999;fill-rule:nonzero;stroke:none;stroke-width:1;stroke-linecap:butt;stroke-linejoin:miter;stroke-miterlimit:10;stroke-dasharray:none"
       id="polygon90"
       transform="matrix(3.89,0,0,3.89,-177.82778,-213.93892)" /><polygon
       points="57.4,49.94 59.79,48.56 57.48,47.23 55.09,48.61 "
       style="opacity:1;fill:#999999;fill-rule:nonzero;stroke:none;stroke-width:1;stroke-linecap:butt;stroke-linejoin:miter;stroke-miterlimit:10;stroke-dasharray:none"
       id="polygon92"
       transform="matrix(3.89,0,0,3.89,-177.82778,-213.93892)" /><polygon
       points="44.08,57.63 46.47,56.25 44.16,54.92 41.77,56.3 "
       style="opacity:1;fill:#999999;fill-rule:nonzero;stroke:none;stroke-width:1;stroke-linecap:butt;stroke-linejoin:miter;stroke-miterlimit:10;stroke-dasharray:none"
       id="polygon94"
       transform="matrix(3.89,0,0,3.89,-177.82778,-213.93892)" /><polygon
       points="30.76,65.33 33.15,63.94 30.84,62.61 28.45,63.99 "
       style="opacity:1;fill:#999999;fill-rule:nonzero;stroke:none;stroke-width:1;stroke-linecap:butt;stroke-linejoin:miter;stroke-miterlimit:10;stroke-dasharray:none"
       id="polygon96"
       transform="matrix(3.89,0,0,3.89,-177.82778,-213.93892)" /><polygon
       points="37.42,61.48 39.81,60.1 37.5,58.77 35.11,60.15 "
       style="opacity:1;fill:#999999;fill-rule:nonzero;stroke:none;stroke-width:1;stroke-linecap:butt;stroke-linejoin:miter;stroke-miterlimit:10;stroke-dasharray:none"
       id="polygon98"
       transform="matrix(3.89,0,0,3.89,-177.82778,-213.93892)" /><polygon
       points="34.09,63.4 36.48,62.02 34.17,60.69 31.78,62.07 "
       style="opacity:1;fill:#999999;fill-rule:nonzero;stroke:none;stroke-width:1;stroke-linecap:butt;stroke-linejoin:miter;stroke-miterlimit:10;stroke-dasharray:none"
       id="polygon100"
       transform="matrix(3.89,0,0,3.89,-177.82778,-213.93892)" /><polygon
       points="27.43,67.25 29.82,65.87 27.51,64.53 25.12,65.92 "
       style="opacity:1;fill:#999999;fill-rule:nonzero;stroke:none;stroke-width:1;stroke-linecap:butt;stroke-linejoin:miter;stroke-miterlimit:10;stroke-dasharray:none"
       id="polygon102"
       transform="matrix(3.89,0,0,3.89,-177.82778,-213.93892)" /><polygon
       points="24.1,69.17 26.49,67.79 24.18,66.46 21.79,67.84 "
       style="opacity:1;fill:#999999;fill-rule:nonzero;stroke:none;stroke-width:1;stroke-linecap:butt;stroke-linejoin:miter;stroke-miterlimit:10;stroke-dasharray:none"
       id="polygon104"
       transform="matrix(3.89,0,0,3.89,-177.82778,-213.93892)" /><polygon
       points="54.07,51.87 56.46,50.48 54.15,49.15 51.76,50.53 "
       style="opacity:1;fill:#999999;fill-rule:nonzero;stroke:none;stroke-width:1;stroke-linecap:butt;stroke-linejoin:miter;stroke-miterlimit:10;stroke-dasharray:none"
       id="polygon106"
       transform="matrix(3.89,0,0,3.89,-177.82778,-213.93892)" /><polygon
       points="50.74,53.79 53.13,52.41 50.82,51.07 48.43,52.46 "
       style="opacity:1;fill:#999999;fill-rule:nonzero;stroke:none;stroke-width:1;stroke-linecap:butt;stroke-linejoin:miter;stroke-miterlimit:10;stroke-dasharray:none"
       id="polygon108"
       transform="matrix(3.89,0,0,3.89,-177.82778,-213.93892)" /><polygon
       points="49.8,54.33 47.49,53 45.1,54.38 47.41,55.71 "
       style="opacity:1;fill:#999999;fill-rule:nonzero;stroke:none;stroke-width:1;stroke-linecap:butt;stroke-linejoin:miter;stroke-miterlimit:10;stroke-dasharray:none"
       id="polygon110"
       transform="matrix(3.89,0,0,3.89,-177.82778,-213.93892)" /><polygon
       points="40.75,59.56 43.14,58.17 40.83,56.84 38.44,58.22 "
       style="opacity:1;fill:#999999;fill-rule:nonzero;stroke:none;stroke-width:1;stroke-linecap:butt;stroke-linejoin:miter;stroke-miterlimit:10;stroke-dasharray:none"
       id="polygon112"
       transform="matrix(3.89,0,0,3.89,-177.82778,-213.93892)" /><polygon
       points="20.77,71.09 23.16,69.71 20.85,68.38 18.46,69.76 "
       style="opacity:1;fill:#999999;fill-rule:nonzero;stroke:none;stroke-width:1;stroke-linecap:butt;stroke-linejoin:miter;stroke-miterlimit:10;stroke-dasharray:none"
       id="polygon114"
       transform="matrix(3.89,0,0,3.89,-177.82778,-213.93892)" /><path
       d="m 55.612,77.142 2.769,-1.599 v 0 l 2.403,-1.388 1.45,-0.837 1.084,-0.626 1.458,-0.842 c 0.352,-0.203 0.352,-0.711 0,-0.914 l -5.494,-3.172 -2.393,1.382 -0.937,0.541 -1.252,0.724 -2.077,1.199 v 0 l -2.393,1.382 -3.33,1.923 5.256,3.035 c 0.637,0.368 1.422,0.368 2.058,0 z"
       style="opacity:1;fill:#999999;fill-rule:nonzero;stroke:none;stroke-width:1;stroke-linecap:butt;stroke-linejoin:miter;stroke-miterlimit:10;stroke-dasharray:none"
       stroke-linecap="round"
       id="path116"
       transform="matrix(3.89,0,0,3.89,-177.82778,-213.93892)" /><polygon
       points="18.97,65.72 21.36,64.34 19.06,63.01 16.66,64.39 13.33,66.31 15.64,67.64 "
       style="opacity:1;fill:#999999;fill-rule:nonzero;stroke:none;stroke-width:1;stroke-linecap:butt;stroke-linejoin:miter;stroke-miterlimit:10;stroke-dasharray:none"
       id="polygon118"
       transform="matrix(3.89,0,0,3.89,-177.82778,-213.93892)" /><text
       xml:space="preserve"
       style="font-size:14.2816px;line-height:1.25;font-family:SpaceColony-SemiBold;-inkscape-font-specification:SpaceColony-SemiBold;opacity:1;fill:none;fill-rule:nonzero;stroke:none;stroke-width:0;stroke-linecap:butt;stroke-linejoin:miter;stroke-miterlimit:10;stroke-dasharray:none"
       x="155.8407"
       y="-21.953897"
       id="text3890"
       transform="matrix(3.89,0,0,3.89,-177.82778,-213.93892)"><tspan
         sodipodi:role="line"
         id="tspan3888"
         style="stroke-width:0"
         x="155.8407"
         y="-21.953897">2</tspan></text><text
       xml:space="preserve"
       style="font-size:100.345px;line-height:1.25;font-family:SpaceColony-SemiBold;-inkscape-font-specification:SpaceColony-SemiBold;fill:#f1be04;fill-opacity:1;stroke-width:1.56789"
       x="-108.84579"
       y="-55.667614"
       id="text10794"><tspan
         sodipodi:role="line"
         id="tspan10792"
         style="font-style:normal;font-variant:normal;font-weight:normal;font-stretch:normal;font-size:100.345px;font-family:'Noto Sans';-inkscape-font-specification:'Noto Sans';fill:#f1be04;fill-opacity:1;stroke-width:1.56789"
         x="-108.84579"
         y="-55.667614">@</tspan></text></g></g><g
   id="g25834"
   style="fill:none;fill-rule:nonzero;stroke:none;stroke-width:0;stroke-linecap:butt;stroke-linejoin:miter;stroke-miterlimit:10;stroke-dasharray:none"
   transform="matrix(0.58533224,0,0,0.58533224,-137.0187,-142.65032)"><path
     d="M 73.177,88.015 H 17.791 c -1.868,0 -3.382,-1.514 -3.382,-3.382 V 5.374 c 0,-1.868 1.514,-3.382 3.382,-3.382 h 55.386 c 1.868,0 3.382,1.514 3.382,3.382 v 79.258 c 0.001,1.868 -1.514,3.383 -3.382,3.383 z"
     style="opacity:1;fill:#ffffff;fill-rule:nonzero;stroke:none;stroke-width:1;stroke-linecap:butt;stroke-linejoin:miter;stroke-miterlimit:10;stroke-dasharray:none"
     stroke-linecap="round"
     id="path25433" /><circle
     cx="45.145"
     cy="83.654999"
     r="3.4749999"
     style="opacity:1;fill:#ecf0f1;fill-rule:nonzero;stroke:none;stroke-width:1;stroke-linecap:butt;stroke-linejoin:miter;stroke-miterlimit:10;stroke-dasharray:none"
     id="circle25435" /><path
     d="M 73.181,0 H 16.819 C 14.048,0 11.78,2.268 11.78,5.039 v 79.922 c 0,2.771 2.268,5.039 5.039,5.039 H 73.18 c 2.771,0 5.039,-2.268 5.039,-5.039 V 5.039 C 78.22,2.268 75.952,0 73.181,0 Z M 15.405,5.039 c 0,-0.766 0.648,-1.414 1.414,-1.414 H 73.18 c 0.766,0 1.414,0.647 1.414,1.414 V 77.426 H 15.405 Z M 45,86.639 c -1.527,0 -2.765,-1.238 -2.765,-2.765 0,-1.527 1.238,-2.765 2.765,-2.765 1.527,0 2.765,1.238 2.765,2.765 0,1.527 -1.238,2.765 -2.765,2.765 z"
     style="opacity:1;fill:#000000;fill-rule:nonzero;stroke:none;stroke-width:1;stroke-linecap:butt;stroke-linejoin:miter;stroke-miterlimit:10;stroke-dasharray:none"
     stroke-linecap="round"
     id="path25437" /><rect
     style="opacity:0.92;fill:#cccccc;stroke:none;stroke-width:2.55484"
     id="rect25580"
     width="52.898045"
     height="18.972525"
     x="18.304934"
     y="6.8103867" /><rect
     style="opacity:0.92;fill:#cccccc;fill-rule:nonzero;stroke:none;stroke-width:1.72365;stroke-linecap:butt;stroke-linejoin:miter;stroke-miterlimit:10;stroke-dasharray:none"
     id="rect25580-3"
     width="38.356964"
     height="11.909451"
     x="18.548038"
     y="32.119141" /><rect
     style="opacity:0.92;fill:#cccccc;fill-rule:nonzero;stroke:none;stroke-width:2.02417;stroke-linecap:butt;stroke-linejoin:miter;stroke-miterlimit:10;stroke-dasharray:none"
     id="rect25580-6"
     width="52.898045"
     height="11.909451"
     x="18.000473"
     y="52.201439" /></g></g>
</svg>
